<?xml version="1.0" encoding="utf-8"?>
<!-- Generator: Adobe Illustrator 23.0.6, SVG Export Plug-In . SVG Version: 6.00 Build 0)  -->
<svg version="1.1" id="Layer_1" xmlns="http://www.w3.org/2000/svg" xmlns:xlink="http://www.w3.org/1999/xlink" x="0px" y="0px"
	 viewBox="0 0 700 700" style="enable-background:new 0 0 700 700;" xml:space="preserve">
<style type="text/css">
	.st0{fill:#FC03C2;}
</style>
<g>
	<path d="M235.27,510.22c-1.45-7.68-6.3-14.17-12.63-18.58c-7.29-5.08-16.12-6.78-24.88-6.68c-5.73,0.06-11.42,0.81-17.08,1.57
		c0.34,0.6,0.69,1.2,1.03,1.8c3.99-8.87,6.46-19.08,3.9-28.72c-2.36-8.87-9.17-16.27-17.34-20.22c-7.46-3.61-16.13-4.53-24.15-2.39
		c-8.14,2.18-14.92,7.52-19.4,14.61c-5.21,8.25-7.31,18.41-6.04,28.05c0.74-0.2,1.48-0.4,2.22-0.6
		c-6.44-13.49-18.79-22.81-33.06-26.75c-6.78-1.87-14.11-2.94-21.1-1.8c-7.07,1.16-12.86,5-17.44,10.41
		c-3.79,4.48-6.45,9.83-7.31,15.66c-0.78,5.28-0.17,10.64,1.31,15.74c2.64,9.09,7.75,17.23,13.3,24.8
		c3.72,5.07,7.73,9.66,13.29,12.79c6.13,3.45,13.42,4.86,20.22,2.66c-0.31-0.73-0.61-1.45-0.92-2.18
		c-6.62,3.17-12.9,7.05-18.45,11.87c-4.77,4.14-9.26,8.98-12.01,14.72c-2.46,5.15-3.98,10.74-4.71,16.39
		c-0.7,5.4-0.73,11.24,1.16,16.42c0.87,2.39,2.17,4.4,3.87,6.28c2.68,2.96,5.59,5.69,8.76,8.12c4.93,3.78,10.55,6.77,16.63,8.2
		c8.56,2.01,18.18,0.84,25.42-4.39c5.09-3.67,8.59-9.33,11.65-14.7c3.96-6.96,7.26-14.32,10.17-21.78c-0.77-0.21-1.53-0.42-2.3-0.63
		c-1.5,9.96,1.78,20.1,6.89,28.58c2.42,4.01,5.32,7.81,8.76,10.99c3.33,3.09,7.24,5.2,11.4,6.99c4.87,2.09,10.3,2.74,15.4,0.98
		c4.98-1.72,9.34-5.24,12.6-9.33c6.55-8.24,9.31-19.15,7.59-29.52c-1.86-11.22-8.96-21.84-19.2-27.03
		c-0.31,0.73-0.61,1.45-0.92,2.18c21.5,9.07,47.35-1.07,58.57-21.14C234.42,526.49,236.64,518.33,235.27,510.22
		c-0.26-1.51-2.56-0.87-2.3,0.63c2.12,12.5-5.08,25.39-14.24,33.44c-7.88,6.92-18.18,11.1-28.68,11.4
		c-6.02,0.18-11.98-0.94-17.53-3.28c-1.24-0.52-2.12,1.57-0.92,2.18c8.44,4.28,14.54,12.39,17.15,21.41
		c2.74,9.49,1.3,19.91-3.89,28.32c-5.25,8.51-14.88,15.16-25.16,11.83c-4.01-1.3-8.22-3.37-11.49-6.07
		c-3.15-2.59-5.84-5.74-8.14-9.1c-5.76-8.42-9.97-19.14-8.41-29.48c0.23-1.52-1.74-2.08-2.3-0.63c-2.48,6.36-5.27,12.6-8.5,18.62
		c-2.79,5.2-5.88,10.62-10.18,14.73c-5.73,5.47-14.27,7.39-21.97,6.5c-5.45-0.63-10.67-2.71-15.32-5.58
		c-2.94-1.81-5.67-3.94-8.21-6.28c-2.34-2.15-4.93-4.46-6.54-7.23c-2.54-4.36-2.87-9.79-2.58-14.71c0.32-5.53,1.58-11.06,3.62-16.21
		c2.38-6.04,6.42-10.98,11.16-15.37c5.76-5.34,12.48-9.52,19.54-12.9c1.22-0.58,0.36-2.6-0.92-2.18
		c-5.78,1.87-11.91,0.91-17.26-1.82c-5.14-2.62-9.14-6.56-12.54-11.16c-4.96-6.71-9.7-13.7-12.7-21.54
		c-3.69-9.64-4.34-20.29,1.26-29.35c3.4-5.5,8.54-10.44,14.75-12.52c6.46-2.16,13.43-1.63,20.01-0.29
		c7.71,1.57,15.12,4.58,21.5,9.23c6.17,4.49,11.08,10.57,14.37,17.44c0.49,1.03,2.38,0.57,2.22-0.6
		c-2.02-15.47,5.09-33.29,20.37-39.27c15.15-5.94,34.12,1.07,40.67,16.3c4.21,9.79,1.76,21.08-2.44,30.43
		c-0.32,0.71,0.03,1.93,1.03,1.8c9.29-1.25,18.89-2.55,28.17-0.59c7.3,1.54,14.08,5.33,18.83,11.16c2.69,3.3,4.5,7.19,5.29,11.37
		C233.25,512.36,235.55,511.73,235.27,510.22z"/>
</g>
<g>
	<g>
		<path d="M529.21,130.02c1.54,0,1.54-2.39,0-2.39C527.68,127.63,527.67,130.02,529.21,130.02L529.21,130.02z"/>
	</g>
	<g>
		<path d="M530.38,129.78c0.03-1.39-0.44-2.08-1.25-3.21c-0.82-1.13-1.71-2.21-2.68-3.21c-1.63-1.68-3.47-3.18-5.43-4.47
			c-4.17-2.76-8.94-4.6-13.82-5.59c-9.41-1.92-20.32-1.18-28.36,4.54c-8.25,5.88-11.81,16.34-12.25,26.12
			c-0.45,10.18,2.64,20.54,8.83,28.66c6.5,8.54,16.04,14.59,26.56,16.75c0-0.77,0-1.53,0-2.3c-10.45,3.77-17.5,13.51-22.3,23.1
			c-5.15,10.27-8,22.03-6.04,33.5c1.72,10.06,7.66,19,16.36,24.38c8.44,5.21,18.77,6.13,27.62,1.36
			c10.16-5.47,16.27-16.31,20.95-26.42c-0.73-0.31-1.45-0.61-2.18-0.92c-3.82,18.04,8.2,37.74,26.55,41.35
			c8.95,1.76,18.55-0.06,26.28-4.91c7.88-4.95,13.25-12.97,14.93-22.12c1.9-10.37-0.65-21.38-7.49-29.49
			c-0.56,0.56-1.12,1.13-1.69,1.69c8.07,6.49,18.23,10.55,28.67,10.45c9.82-0.09,19.2-4.19,25.65-11.65
			c6.16-7.13,9.17-16.68,6.89-25.96c-2.33-9.48-9.41-17.26-17.59-22.25c-11.21-6.85-24.6-8.73-37.37-10.53
			c0.28,0.49,0.56,0.98,0.83,1.47c6.2-17.87,6.77-40.61-7.43-54.96c-6.99-7.06-16.5-10.92-26.11-12.8c-4.91-0.96-9.9-1.46-14.9-1.64
			c-5.33-0.19-11.03-0.23-15.68,2.75c-4.04,2.59-6.52,6.81-7.93,11.3c-0.77,2.46-1.23,5.01-1.54,7.57
			c-0.16,1.35-0.28,2.71-0.35,4.07c-0.07,1.25-0.29,2.44,0.37,3.55c0.79,1.32,2.85,0.12,2.06-1.2c-0.39-0.65-0.07-2-0.02-2.75
			c0.07-1.09,0.16-2.18,0.28-3.26c0.25-2.16,0.64-4.31,1.23-6.4c1.09-3.87,2.95-7.68,6.2-10.18c4.15-3.2,9.52-3.24,14.52-3.09
			c4.63,0.14,9.27,0.53,13.84,1.34c9.03,1.61,18.08,4.84,24.96,11.1c6.7,6.09,10.51,14.49,11.78,23.37
			c1.47,10.27-0.19,20.87-3.57,30.6c-0.19,0.55,0.22,1.38,0.83,1.47c19.16,2.7,42.79,6.66,51.71,26.49
			c3.76,8.36,2.62,17.7-2.4,25.26c-5.07,7.63-13.38,12.69-22.47,13.73c-11,1.26-22.22-2.65-30.76-9.52
			c-1.19-0.96-2.69,0.5-1.69,1.69c11.33,13.44,9.52,35.58-4.68,46.28c-6.72,5.07-15.34,7.45-23.71,6.68
			c-8.54-0.79-16.25-5.27-21.46-12.04c-5.77-7.52-8.42-17.47-6.44-26.81c0.26-1.24-1.58-2.22-2.18-0.92
			c-3.94,8.52-8.74,17.41-16.38,23.18c-3.67,2.78-8.06,4.75-12.67,5.17c-4.49,0.41-9.03-0.52-13.1-2.43
			c-8.46-3.98-15.03-11.73-17.54-20.74c-2.94-10.54-1.06-21.85,3.16-31.78c4.38-10.3,11.6-21.83,22.64-25.81
			c1.02-0.37,1.25-2.05,0-2.3c-18.22-3.74-32.15-19.29-33.55-37.9c-0.68-9.09,1.34-19.46,7.69-26.34c6.32-6.85,16.24-8.69,25.18-7.9
			c5.12,0.45,10.22,1.82,14.78,4.2c2.3,1.2,4.47,2.64,6.41,4.36c0.91,0.81,1.78,1.67,2.58,2.58c0.85,0.96,2.31,2.37,2.28,3.71
			C527.97,131.32,530.36,131.32,530.38,129.78L530.38,129.78z"/>
	</g>
</g>
<g>
	<path d="M377.47,326.04c-2.99-7.92-9.8-13.26-17.38-16.55c-9.03-3.92-19.11-5.51-28.89-5.95c-6.37-0.29-12.74,0.05-19.05,0.93
		c0.49,0.49,0.98,0.98,1.47,1.47c2.68-7.79,5.37-16.21,3.87-24.54c-1.44-7.99-7.28-13.75-14.05-17.7
		c-7.25-4.23-15.81-7.3-24.22-7.94c-4.21-0.32-7.47,1.32-10.05,4.61c-2.34,2.98-4.02,6.44-5.17,10.04
		c-2.72,8.58-2.43,17.82-2.01,26.7c0.68-0.28,1.36-0.56,2.04-0.84c-8.99-7.1-20.77-10.86-31.98-12.54
		c-5.38-0.8-11.27-1.56-16.61-0.11c-4.55,1.24-8.08,4.38-10.55,8.32c-2.53,4.04-4.06,8.69-5.3,13.26c-1.29,4.76-2.2,9.68-2.33,14.62
		c-0.25,9.54,2.96,18.77,10.94,24.46c8.51,6.07,19.71,6.98,29.81,7.63c-0.2-0.74-0.4-1.48-0.6-2.22
		c-10.14,5.26-19.39,12.23-27.19,20.57c-7.35,7.86-14.49,17.59-14.86,28.78c-0.32,9.87,4.99,19.45,14.86,22.19
		c9.81,2.72,21.11-0.32,29.98-4.72c10.2-5.05,18.83-13.18,24.36-23.14c-0.74-0.2-1.48-0.4-2.22-0.6
		c0.38,10.26-1.94,20.99,2.98,30.54c3.8,7.38,10.97,12.92,18.92,15.13c17,4.72,34.86-7.19,39.3-23.76
		c2.71-10.13,0.82-21.25-4.77-30.08c-0.54,0.54-1.09,1.09-1.63,1.63c11.46,6.67,26.15,4.9,37.07-2.04
		c11.56-7.35,18.67-20.06,22.26-32.98C378.7,343.15,380.33,334.13,377.47,326.04c-0.51-1.44-2.82-0.82-2.3,0.63
		c2.48,7.02,1.32,14.64-0.43,21.7c-1.53,6.18-3.78,12.19-6.96,17.71c-6.35,11.03-16.57,19.56-29.38,21.56
		c-6.87,1.07-14.02,0.04-20.06-3.48c-1.01-0.59-2.28,0.61-1.63,1.63c4.64,7.33,6.65,16.34,5.23,24.93
		c-1.34,8.19-5.79,15.57-12.52,20.46c-6.33,4.59-14.39,6.95-22.17,5.5c-7.62-1.42-14.65-6.07-18.78-12.65
		c-5.95-9.49-3.36-20.73-3.75-31.27c-0.04-1.14-1.63-1.67-2.22-0.6c-4.61,8.3-11.41,15.24-19.55,20.12
		c-8.12,4.87-18.08,8.16-27.64,7.42c-4.95-0.38-9.7-2.27-12.96-6.12c-2.91-3.44-4.37-8.03-4.58-12.48
		c-0.5-10.58,5.92-19.99,12.67-27.54c7.98-8.92,17.56-16.3,28.18-21.81c1.12-0.58,0.5-2.15-0.6-2.22
		c-8.49-0.55-17.52-1.26-25.21-5.24c-3.73-1.93-7.01-4.67-9.27-8.24c-2.41-3.81-3.56-8.25-3.83-12.72
		c-0.27-4.56,0.27-9.13,1.23-13.59c0.95-4.38,2.18-8.81,4.04-12.89c1.77-3.9,4.27-7.68,8.13-9.76c4.52-2.44,10.06-1.98,14.99-1.47
		c6.04,0.63,12.01,1.96,17.75,3.92c5.86,1.99,11.6,4.56,16.48,8.42c0.74,0.58,2.09,0.29,2.04-0.84c-0.35-7.22-0.61-14.59,0.81-21.72
		c0.71-3.55,1.84-7.02,3.62-10.19c1.75-3.12,4.16-6.64,8.01-7.06c3.86-0.42,8.23,0.83,11.9,1.88c3.8,1.08,7.48,2.54,10.99,4.35
		c6.46,3.34,12.79,8.08,14.93,15.36c2.5,8.47-0.57,17.56-3.33,25.57c-0.33,0.96,0.65,1.58,1.47,1.47
		c10.48-1.45,21.21-1.25,31.62,0.65c8.02,1.46,16.21,3.87,22.77,8.88c3.53,2.69,6.42,6.2,8,10.38
		C375.71,328.1,378.01,327.48,377.47,326.04z"/>
</g>
<polygon class="st0" points="168.82,91.5 176.7,78.72 167.42,48 103.48,151.15 132.19,151.15 152.78,117.61 173.31,150.81 
	204.21,150.81 "/>
<circle class="st0" cx="377.87" cy="411.27" r="13.96"/>
<polygon class="st0" points="325.36,435.43 364.06,474.12 389.08,449.1 349.22,409.23 388.05,370.4 363.02,345.37 325.36,383.03 "/>
<polygon class="st0" points="142.29,330.79 113.07,330.79 186.37,213.21 215.42,213.59 "/>
<g>
	<polygon class="st0" points="243.85,175.94 215.58,175.94 286.49,62.2 314.59,62.57 	"/>
	<polygon class="st0" points="286.8,62.31 317.53,62.48 331.24,103.52 299.7,127.52 272.05,119.57 	"/>
</g>
<g>
	<polygon class="st0" points="346.76,564.58 314.35,596.99 335.31,617.95 368.7,584.56 401.22,617.08 422.19,596.12 390.64,564.58 	
		"/>
	
		<rect x="352.67" y="524.43" transform="matrix(0.9999 -0.0169 0.0169 0.9999 -9.0717 6.299)" class="st0" width="31.05" height="31.05"/>
</g>
<g>
	<circle class="st0" cx="469.19" cy="598.42" r="11.86"/>
	<g>
		<polygon class="st0" points="505.73,583.91 484.47,562.65 532.33,514.78 572.4,513.64 		"/>
		
			<rect x="484.49" y="509.94" transform="matrix(-0.7071 0.7071 -0.7071 -0.7071 1257.2122 623.2788)" class="st0" width="30.07" height="124.15"/>
	</g>
</g>
<polygon class="st0" points="489.85,387.14 521.54,397.7 480.54,464.15 442.37,453.41 441.5,389.18 480.39,354.83 "/>
<polygon class="st0" points="308.35,282.85 248.95,282.85 248.95,215.35 335.57,215.35 335.57,240.7 "/>
<polygon class="st0" points="505.91,202.65 481.18,185.48 441.16,209.09 466.9,167.84 436.97,167.46 361.44,288.61 391.55,288.61 
	410.38,258.42 "/>
</svg>
