<?xml version="1.0" encoding="utf-8"?>
<!-- Generator: Adobe Illustrator 13.0.0, SVG Export Plug-In . SVG Version: 6.00 Build 14948)  -->
<!DOCTYPE svg PUBLIC "-//W3C//DTD SVG 1.1//EN" "http://www.w3.org/Graphics/SVG/1.1/DTD/svg11.dtd">
<svg version="1.1" id="Layer_1" xmlns="http://www.w3.org/2000/svg" xmlns:xlink="http://www.w3.org/1999/xlink" x="0px" y="0px"
	 width="299.357px" height="123.637px" viewBox="0 0 299.357 123.637" enable-background="new 0 0 299.357 123.637"
	 xml:space="preserve">
<g>
	<path fill="#434343" d="M73.958,70.522h-45.98c0.258,3.628,1.079,6.109,2.461,7.447c1.38,1.341,3.193,2.008,5.44,2.008
		c3.109,0,5.353-1.425,6.735-4.274h30.438c-1.036,5.183-3.218,9.824-6.541,13.925c-3.325,4.103-7.512,7.342-12.564,9.714
		c-5.051,2.375-10.6,3.562-16.643,3.562c-7.253,0-13.709-1.51-19.364-4.532C12.284,95.35,7.88,91.012,4.729,85.353
		C1.574,79.699,0,73.071,0,65.471c0-7.599,1.574-14.226,4.728-19.883c3.151-5.653,7.555-9.992,13.211-13.017
		c5.655-3.022,12.11-4.533,19.364-4.533c7.253,0,13.707,1.489,19.363,4.468c5.655,2.979,10.059,7.232,13.211,12.759
		c3.151,5.526,4.728,12.045,4.728,19.559C74.605,66.637,74.388,68.538,73.958,70.522z M45.462,58.736
		c0-2.763-0.777-4.812-2.332-6.151c-1.554-1.338-3.497-2.009-5.828-2.009c-5.268,0-8.29,2.72-9.067,8.161L45.462,58.736
		L45.462,58.736z"/>
	<path fill="#434343" d="M172.041,89.412l-16.795-27.187v27.187h-26.824V0h26.824V46.76l17.037-25.495h31.174L177.961,55.58
		l26.099,33.832H172.041z"/>
	<path fill="#434343" d="M277.776,8.935c6.746,3.474,12.029,8.46,15.851,14.958c3.817,6.5,5.73,14.116,5.73,22.847
		c0,8.732-1.912,16.349-5.73,22.846c-3.821,6.501-9.104,11.486-15.851,14.96c-6.75,3.475-14.34,5.209-22.773,5.209
		s-16.025-1.734-22.771-5.209c-6.75-3.474-12.032-8.459-15.852-14.96c-3.82-6.497-5.73-14.112-5.73-22.846
		c0-8.731,1.91-16.347,5.73-22.847c3.818-6.498,9.102-11.484,15.852-14.958c6.746-3.473,14.338-5.21,22.771-5.21
		S271.026,5.463,277.776,8.935z M247.265,35.949c-2.084,2.432-3.127,6.028-3.127,10.791s1.019,8.36,3.053,10.79
		c2.033,2.432,4.638,3.646,7.812,3.646c3.075,0,5.657-1.216,7.741-3.646c2.084-2.43,3.125-6.027,3.125-10.79
		s-1.041-8.359-3.125-10.791c-2.084-2.43-4.666-3.646-7.741-3.646C251.926,32.302,249.347,33.519,247.265,35.949z"/>
	<g>
		<path fill="#434343" d="M117.175,55.49v68.146H90.352V55.49H117.175z"/>
		<circle fill="#434343" cx="103.657" cy="31.112" r="14.712"/>
	</g>
</g>
</svg>
